<?xml version="1.0" encoding="utf-8"?>
<!-- Generator: Adobe Illustrator 22.1.0, SVG Export Plug-In . SVG Version: 6.00 Build 0)  -->
<svg version="1.1" id="Layer_1" xmlns="http://www.w3.org/2000/svg" xmlns:xlink="http://www.w3.org/1999/xlink" x="0px" y="0px"
	 viewBox="0 0 130 46.5" style="enable-background:new 0 0 130 46.5;" xml:space="preserve">
<style type="text/css">
	.st0{display:none;}
	.st1{display:inline;fill:#FFFFFF;}
</style>
<g class="st0">
	<path class="st1" d="M72.8,20.8c0.1,0.6,0.7,1,1.6,1.2c0.4,0.1,0.7,0.1,1.1,0c0.3,0.1,0.5,0,0.6-0.1c0,0.1,0.1,0.1,0.2,0.1
		c0.1,0,0.1-0.1,0.1-0.1c0.2,0,0.4-0.1,0.5-0.1c0.3-0.1,0.4-0.2,0.3-0.3c0.2,0,0.3-0.2,0.3-0.3c0.4-0.3,0.5-0.9,0.3-1.3
		c0.1,0.1,0.1,0.2,0.2,0.3c0,0.1,0.1,0.2,0.1,0.3c0-0.4,0-0.7-0.3-1c-0.2-0.3-0.5-0.5-0.9-0.6c-0.4-0.2-0.8-0.3-1.2-0.3
		c-0.4,0-0.9,0-1.3,0.1c-0.2,0-0.4,0-0.6,0.2c-0.2,0.2-0.3,0.3-0.4,0.3c-0.2,0-0.2,0.1-0.2,0.2c-0.2,0-0.3,0.1-0.3,0.2
		c0,0.1,0,0.2,0,0.3l-0.1,0.1c-0.1,0.1-0.1,0.2-0.2,0.3c0,0.1,0,0.3,0.1,0.4C72.7,20.6,72.7,20.7,72.8,20.8z M75.2,18.5
		c0.3,0,0.6,0,1,0c0.4,0.1,0.7,0.2,1,0.3c0.3,0.2,0.6,0.5,0.7,0.8c-0.3-0.4-0.6-0.7-1-0.8c-0.7-0.3-1.4-0.3-2.1-0.2
		C74.8,18.6,75,18.6,75.2,18.5L75.2,18.5z M19.2,26.7c-0.3,0-0.6,0-0.8,0.2c-0.2,0.1-0.5,0.3-0.6,0.6c-0.2,0.3-0.3,0.6-0.4,0.9
		c-0.2,0.4-0.4,0.8-0.6,1.3c-0.1,0-0.2,0.1-0.2,0.3c-0.1,0.1-0.2,0.1-0.2,0.2c-0.1,0.1-0.1,0.2,0,0.3c-0.1,0.1-0.1,0.2-0.1,0.3
		c0,0.1-0.1,0.2-0.1,0.3c-0.3,0.3-0.5,0.7-0.6,1.1c-0.1,0-0.2,0.1-0.4,0.5c-0.2,0.3-0.3,0.6-0.4,0.9l-0.1,0.1c-0.1,0-0.2,0-0.2,0.1
		c-0.1,0.1-0.1,0.3-0.1,0.4c-0.2,0.3-0.5,0.6-0.7,0.8l-0.7,0.7c-0.3,0-0.5,0.2-0.7,0.3c-0.2,0.2-0.4,0.4-0.6,0.6
		c-0.1-0.1-0.3-0.1-0.6,0.1c-0.3,0.2-0.6,0.4-1,0.6c-0.1,0-0.2,0.1-0.4,0.1c-0.1,0-0.2,0.1-0.4,0.1c-0.1-0.1-0.2-0.1-0.3-0.1
		c-0.1,0-0.3,0.1-0.4,0.2H8.1c-0.2-0.2-0.4-0.3-0.6-0.4c-0.2-0.1-0.4-0.1-0.6-0.1L6.7,37c0.3,0,0.5-0.1,0.7-0.3
		c0.2-0.1,0.4-0.3,0.5-0.5c0,0,0.1,0,0.1,0c0,0,0,0,0,0c0,0.1,0.1,0.1,0.2,0c0,0,0,0,0,0c0.1-0.1,0.1-0.1,0.2-0.2
		c0.2-0.1,0.4-0.2,0.6-0.2c0.3-0.1,0.6-0.3,0.6-0.6c0.3-0.2,0.5-0.3,0.7-0.5c0.2-0.1,0.3-0.3,0.3-0.6c0.2-0.2,0.4-0.4,0.6-0.6
		c0.2-0.2,0.4-0.5,0.6-0.7c0.1,0,0.2,0,0.4-0.3c0.2-0.2,0.3-0.5,0.3-0.8c0.3-0.1,0.3-0.2,0.2-0.4c0.1-0.1,0.2-0.2,0.2-0.3
		c0.1-0.2,0.2-0.4,0.3-0.6c0.1-0.2,0.2-0.4,0.2-0.6c0-0.1,0-0.3,0-0.4c0.1-0.3,0.2-0.6,0.3-0.9c0.1-0.3,0.1-0.6,0.1-0.9
		c0.1,0,0.1-0.1,0.1-0.2c0-0.1,0-0.2-0.1-0.3v-0.1c0.1-0.1,0.2-0.3,0.1-0.4c0-0.2-0.1-0.3-0.1-0.3c-0.1-0.4-0.1-0.7-0.2-0.8
		c0.1-0.3,0.1-0.6-0.1-0.9c-0.1-0.2-0.3-0.4-0.5-0.5c0-0.1,0-0.2-0.1-0.3c-0.1-0.1-0.2-0.1-0.3-0.1c-0.1-0.3-0.3-0.5-0.4-0.5
		c-0.1,0-0.3,0-0.4-0.1c0-0.2-0.2-0.3-0.4-0.2c-0.1-0.2-0.3-0.3-0.5-0.4c-0.2-0.1-0.4-0.1-0.6,0c-2.9-0.7-5.9,0.5-7.6,3
		c-0.2,0-0.3,0.1-0.4,0.3c-0.1,0.2-0.1,0.4-0.2,0.6C2,26.5,1.8,26.8,1.7,27c-0.1,0.3-0.2,0.5-0.3,0.8c0,0.1,0,0.2-0.1,0.2
		c-0.2,0.2-0.2,0.4-0.2,0.6c-0.3,0.2-0.4,0.4-0.5,0.8c-0.1,0.3-0.1,0.6-0.1,0.9c0,0.2-0.1,0.4-0.1,0.5s-0.1,0.3-0.1,0.5
		C0.1,32.1,0,33,0,33.9c0,0.8,0.1,1.6,0.4,2.3c-0.2-0.7-0.2-1.5-0.2-2.2c0-0.7,0.1-1.4,0.3-2.1c-0.2,0.8-0.3,1.7-0.2,2.5
		c0,0.5,0.1,1,0.2,1.5c0,0,0,0.1,0,0.1s0,0.1,0,0.1c0,0.1,0,0.1,0.1,0.2l-0.1,0.2c-0.1,0.2,0,0.4,0.1,0.6c0.1,0.2,0.3,0.4,0.5,0.5
		c0.1,0.1,0.1,0.2,0.2,0.3c0,0.2,0.1,0.3,0.2,0.3c0,0.2,0,0.4,0.1,0.5c0.1,0.1,0.3,0.2,0.5,0.3c0.8,0.8,1.7,1.4,2.7,1.7
		c1.1,0.4,2.2,0.5,3.3,0.4C8.5,41,8.7,41,9,41c0.3,0,0.5-0.1,0.7-0.3h0.1c0.1,0,0.2,0,0.3,0c0.1,0,0.2-0.1,0.2-0.2
		c0.3,0,0.5-0.1,0.8-0.1c0.3-0.1,0.6-0.2,0.9-0.4c0.3-0.2,0.6-0.3,0.8-0.5c0.2-0.2,0.4-0.4,0.6-0.6c0.4-0.1,0.7-0.3,1-0.6
		c0.3-0.2,0.5-0.6,0.6-1c0.2-0.1,0.5-0.3,0.6-0.6c0.3-0.3,0.4-0.5,0.3-0.7c0.3-0.1,0.4-0.3,0.3-0.5h0.1c0.2,0,0.3-0.1,0.2-0.3
		c0.1-0.2,0.2-0.4,0.3-0.6c0.2-0.1,0.3-0.3,0.4-0.5c0.1-0.2,0.2-0.4,0.2-0.6c0.1-0.1,0.2-0.2,0.3-0.3c0.1-0.1,0.2-0.3,0.1-0.4
		c0.2-0.2,0.3-0.4,0.4-0.6c0.1-0.2,0.2-0.4,0.1-0.7c0.4-0.9,0.8-1.7,1.1-2.4s0.5-1.1,0.6-1.3c0.1-0.4,0.1-0.7-0.1-0.9
		C19.7,26.8,19.5,26.7,19.2,26.7z M8.4,33.5c-0.4,0.3-0.7,0.6-1.1,0.9c-0.4,0.3-0.9,0.6-1.6,1.1c-0.1-0.1-0.1-0.1-0.2-0.2
		c0.6-0.3,1.1-0.6,1.5-0.9c0.4-0.3,0.8-0.5,1.2-0.8c0.3-0.2,0.6-0.5,0.9-0.8C8.9,33,8.7,33.2,8.4,33.5z M5.4,34.8L5.4,34.8
		c0-0.1,0.3-0.3,0.9-0.6c0.6-0.3,1.1-0.7,1.6-1.2c-0.3,0.4-0.7,0.8-1.2,1.1C6.1,34.4,5.7,34.7,5.4,34.8z M9.2,26.9
		c0.3,0,0.7,0.1,0.9,0.3c0.3,0.2,0.4,0.6,0.4,0.9c0,0.6-0.2,1.2-0.5,1.7c0.2-0.6,0.3-1.2,0.2-1.9c-0.1-0.3-0.3-0.6-0.6-0.8
		C9.4,27,9.1,27,8.8,27.1c-0.3,0.1-0.5,0.1-0.6,0.2C8.5,27,8.8,26.9,9.2,26.9L9.2,26.9z M5.5,31.5c0.2-0.3,0.4-0.7,0.5-1.2v-0.1
		c0.2,0,0.3-0.1,0.2-0.4c0.1-0.2,0.3-0.3,0.4-0.5c0.2-0.2,0.3-0.4,0.3-0.4c0.2-0.1,0.3-0.2,0.3-0.3c0.4-0.4,0.8-0.8,1.3-1
		c0.4-0.2,0.8-0.2,1.2-0.1c0.3,0.2,0.5,0.6,0.4,1c0,0.6-0.2,1.1-0.5,1.7c-0.2,0.1-0.3,0.1-0.3,0.2s0,0.2,0,0.3
		c-0.1-0.1-0.2,0-0.3,0.1s-0.2,0.4-0.2,0.6c-0.5,0.7-1.2,1.4-2,1.9c-0.3-0.1-0.6,0-0.7,0.2c-0.1,0.2-0.2,0.3-0.3,0.4
		c-0.1-0.2-0.3-0.1-0.7,0.3C5.1,33.2,5.2,32.3,5.5,31.5z M5.9,40.6c-0.6-0.2-1.2-0.4-1.7-0.7c-0.4-0.2-0.8-0.5-1.1-0.8
		c-0.2-0.1-0.3-0.3-0.5-0.5c0.3,0.3,0.7,0.6,1.1,0.8c0.5,0.3,0.9,0.5,1.5,0.7c0.5,0.2,1.1,0.3,1.6,0.5c0.5,0.1,1,0.2,1.4,0.2
		C7.4,40.8,6.6,40.8,5.9,40.6z M14.5,36.5c-0.2,0.3-0.3,0.4-0.2,0.5c-0.3,0.2-0.6,0.3-0.8,0.6c-0.3,0.3-0.5,0.6-0.5,0.8
		c-0.2,0-0.4,0.1-0.6,0.2c-0.2,0.1-0.5,0.2-0.7,0.4c0.3-0.2,0.5-0.3,0.7-0.5c0.2-0.1,0.3-0.3,0.3-0.5c0.2,0.1,0.4-0.1,0.8-0.4
		c0.3-0.2,0.5-0.5,0.6-0.8l0.5-0.5c0.2-0.2,0.4-0.4,0.5-0.6C14.9,36,14.7,36.3,14.5,36.5z"/>
	<path class="st1" d="M129.9,27c-0.2-0.2-0.4-0.3-0.7-0.3c-0.3,0-0.6,0.1-0.8,0.2c-0.2,0.1-0.4,0.3-0.6,0.5
		c-0.3,0.6-0.5,1.2-0.8,1.8c-0.3,0.6-0.5,1.1-0.8,1.7c-0.2,0-0.4,0.1-0.4,0.4c0,0.2-0.1,0.5-0.2,0.7c-0.2,0-0.2,0-0.2,0.2
		c0,0.2,0,0.3-0.1,0.5c-0.3,0.1-0.6,0.4-0.6,0.7c0,0.3-0.1,0.6-0.3,0.9c-0.1,0.1-0.1,0.2-0.2,0.3c0,0.1-0.1,0.2-0.2,0.3
		c-0.1,0-0.2,0.1-0.2,0.3c0,0.1-0.1,0.1-0.1,0.2c0,0.1-0.1,0.1-0.1,0.2c-0.2,0.2-0.4,0.4-0.5,0.6c-0.2,0.3-0.4,0.5-0.5,0.7l-0.3,0.3
		c-0.3,0-0.7,0.2-0.9,0.4h-0.2c-0.3-0.1-0.3-1,0.1-2.8c0.7-2.9,1.7-5.8,2.7-8.6c0.1-0.1,0.2-0.2,0.3-0.3c0.1-0.1,0.1-0.2,0-0.4v-0.1
		c0.1,0,0.2-0.2,0.3-0.4c0.1-0.2,0.1-0.5,0.1-0.7c0.2-0.1,0.3-0.2,0.3-0.4c0.1-0.2,0.1-0.3,0.1-0.5c0-0.2,0-0.3-0.1-0.5
		c0-0.1-0.2-0.2-0.3-0.1c0,0,0,0,0,0c-0.2-0.2-0.5-0.3-0.7-0.2c-0.4,0-0.8,0-1.1,0.1c-0.2-0.2-0.5-0.2-0.8-0.1
		c-0.2,0.1-0.4,0.3-0.6,0.5c-0.1-0.1-0.2-0.1-0.3-0.1c-0.2,0.1-0.3,0.2-0.5,0.3c-0.2,0.1-0.3,0.3-0.5,0.4s-0.3,0.2-0.3,0.3
		c-0.1-0.1-0.3-0.1-0.4,0c-0.1,0.1-0.2,0.3-0.3,0.4c-0.2-0.2-0.4-0.1-0.6,0.1c-0.2,0.2-0.3,0.4-0.4,0.6c-0.4,0.2-0.8,0.2-1.2,0.2
		c0.1-0.1,0.1-0.2,0.1-0.3c0.3-0.5,0.5-0.8,0.3-1.1v-0.2c0.1-0.1,0.2-0.2,0.2-0.3c0-0.1,0-0.2-0.2-0.2c0-0.7-0.3-1.3-0.8-1.8
		c-0.5-0.4-1.1-0.6-1.7-0.6c-0.7,0.1-1.4,0.4-2,0.9c-0.7,0.7-1.3,1.6-1.6,2.6c0.2-0.3,0.4-0.5,0.5-0.7c0.2-0.2,0.3-0.4,0.5-0.6
		c-0.4,0.8-0.6,1.7-0.6,2.6c-0.1,0.8,0.2,1.6,0.8,2.2l0.2,0.2c0,0.1,0,0.1-0.1,0.2c-0.2,0.4-0.4,0.8-0.6,1.3c-0.1,0-0.2,0.1-0.2,0.3
		c-0.1,0.1-0.2,0.1-0.2,0.2c-0.1,0.1-0.1,0.2,0,0.3c-0.1,0.1-0.1,0.2-0.1,0.3c0,0.1-0.1,0.2-0.1,0.3c-0.3,0.3-0.5,0.7-0.6,1.1
		c-0.1,0-0.2,0.1-0.4,0.5c-0.2,0.3-0.3,0.6-0.4,0.9l-0.1,0.1c-0.1,0-0.2,0-0.2,0.1c-0.1,0.1-0.1,0.3-0.1,0.4
		c-0.2,0.3-0.5,0.6-0.7,0.8l-0.7,0.7c-0.3,0-0.5,0.2-0.7,0.3c-0.2,0.2-0.4,0.4-0.6,0.6c-0.1-0.1-0.3-0.1-0.6,0.1s-0.6,0.4-1,0.6
		c-0.1,0-0.2,0.1-0.4,0.1c-0.1,0-0.2,0.1-0.4,0.1c-0.1-0.1-0.2-0.1-0.3-0.1c-0.1,0-0.3,0.1-0.4,0.2h-0.3c-0.2-0.2-0.4-0.3-0.6-0.4
		c-0.2-0.1-0.4-0.1-0.6-0.1l-0.2-0.2c0.3,0,0.5-0.1,0.7-0.3c0.2-0.1,0.4-0.3,0.5-0.5c0,0,0.1,0,0.1,0c0,0,0,0,0,0
		c0,0.1,0.1,0.1,0.2,0c0,0,0,0,0,0c0.1-0.1,0.1-0.1,0.2-0.2c0.2-0.1,0.4-0.2,0.6-0.2c0.3-0.1,0.6-0.3,0.6-0.6
		c0.3-0.2,0.5-0.3,0.7-0.5c0.2-0.1,0.3-0.3,0.3-0.6c0.2-0.2,0.4-0.4,0.6-0.6c0.2-0.2,0.4-0.5,0.6-0.7c0.1,0,0.2,0,0.4-0.3
		c0.2-0.2,0.3-0.5,0.3-0.8c0.3-0.1,0.3-0.2,0.2-0.4c0.1-0.1,0.2-0.2,0.2-0.3c0.1-0.2,0.2-0.4,0.3-0.6c0.1-0.2,0.2-0.4,0.2-0.6
		c0-0.1,0-0.3,0-0.4c0.1-0.3,0.2-0.6,0.3-0.9c0.1-0.3,0.1-0.6,0.1-0.9c0.1,0,0.1-0.1,0.1-0.2c0-0.1,0-0.2-0.1-0.3v-0.1
		c0.1-0.1,0.2-0.3,0.1-0.4c0-0.2-0.1-0.3-0.1-0.3c-0.1-0.4-0.1-0.7-0.2-0.8c0.1-0.3,0.1-0.6-0.1-0.9c-0.1-0.2-0.3-0.4-0.5-0.5
		c0-0.1,0-0.2-0.1-0.3c-0.1-0.1-0.2-0.1-0.3-0.1c-0.1-0.3-0.3-0.5-0.4-0.5c-0.1,0-0.3,0-0.4-0.1c0-0.2-0.2-0.3-0.4-0.2
		c-0.1-0.2-0.3-0.3-0.5-0.4c-0.2-0.1-0.4-0.1-0.6,0c-2.9-0.7-5.9,0.5-7.6,3c-0.2,0-0.3,0.1-0.4,0.3c-0.1,0.2-0.1,0.4-0.2,0.6
		c-0.2,0.2-0.4,0.4-0.5,0.7c-0.1,0.3-0.2,0.5-0.3,0.8c0,0.1,0,0.2-0.1,0.2c-0.2,0.2-0.2,0.4-0.2,0.6c-0.3,0.2-0.4,0.4-0.5,0.8
		c0,0.1,0,0.2,0,0.4c0,0.1-0.1,0.1-0.1,0.2c-0.2,0-0.4,0.1-0.5,0.2c-0.2,0.2-0.3,0.3-0.2,0.5c-0.7,0.6-1.2,0.6-1.6-0.1
		c0-0.1-0.1-0.2-0.1-0.3c0-0.1,0-0.2-0.1-0.3V30c0.1-0.1,0.1-0.3,0.1-0.4c0-0.2-0.1-0.3-0.1-0.4c0,0,0.1-0.1,0.1-0.2
		c0.1-0.7,0.3-1.4,0.6-2.1c0.3-0.8,0.7-1.9,1.2-3.1c0.1-0.4-0.2-0.7-0.8-0.8c-0.7-0.1-1.4-0.2-2-0.1c-0.2,0.3-0.4,0.7-0.6,1
		c-0.3,0.6-0.5,1.1-0.7,1.7c-0.2,0.7-0.4,1.3-0.6,2c-0.2,0.6-0.2,1.3-0.1,1.9c-0.3-0.9-0.2-2,0.1-2.9c0.4-1.3,0.9-2.6,1.5-3.8
		c-0.4,0.1-0.8,0.2-1.2,0.3c-0.3,0.1-0.7,0.3-0.9,0.6c-0.2,0.3-0.3,0.6-0.4,0.8c-0.1,0.3-0.2,0.5-0.3,0.8c0.1-0.3,0.2-0.6,0.3-0.9
		c0.1-0.3,0.2-0.5,0.3-0.7c-0.3,0.4-0.5,0.8-0.6,1.2c-0.2,0.6-0.4,1.2-0.5,1.9c-0.2,0.2-0.3,0.4-0.3,0.7c0,0.3,0,0.5,0.1,0.6
		c-0.1,0.1-0.1,0.3-0.1,0.6c0,0.4,0,0.7,0.1,1c-0.1,0.2-0.1,0.4-0.2,0.7c0,0.2-0.1,0.4-0.2,0.6c-0.3,0.4-0.6,0.9-0.7,1.5
		c-0.2,0.6-0.2,1-0.1,1.1C87,33.5,87,33.7,87,33.8c0,0.2,0,0.3,0,0.3c-0.1,0.2-0.3,0.4-0.3,0.6c-0.1,0.2-0.2,0.5-0.2,0.8
		c-0.3,0.7-0.7,1.2-1.2,1.7c-0.3,0.3-0.8,0.4-1.2,0.3c-0.3-0.1-0.5-0.2-0.7-0.5c0.1-0.2,0.1-0.4,0-0.6c-0.1-0.2-0.2-0.3-0.3-0.3
		c0.1-0.1,0.2-0.3,0.2-0.5c0-0.2,0.1-0.5,0.1-0.7c0-0.4-0.1-0.8-0.2-1.2c0.1-0.4,0.2-0.9,0.3-1.4c0.1-0.6,0.3-1.1,0.4-1.7
		c0.2,0,0.2-0.2,0.2-0.4V30c0.2-0.1,0.3-0.3,0.3-0.6c0.1-0.3,0.1-0.7,0.1-1c0.1-0.1,0.1-0.3,0.1-0.4c0.2-0.1,0.3-0.2,0.2-0.5
		c0.1,0,0.2-0.2,0.3-0.4c0.1-0.2,0.1-0.4,0-0.6c0.1-0.2,0.1-0.3,0.2-0.5c0-0.2,0.1-0.4,0.2-0.6c0.1-0.1,0.1-0.1,0.2-0.2
		c0-0.1,0.1-0.2,0.1-0.3c0.1-0.1,0.2-0.2,0.2-0.3c0-0.1,0-0.3,0-0.4c0.2,0,0.4-0.2,0.5-0.6s0.1-0.6-0.2-0.7
		c-0.1-0.2-0.3-0.3-0.6-0.3c-0.4,0-0.7-0.1-1.1-0.1c-0.3-0.1-0.6-0.1-0.9,0c-0.3,0-0.6,0.1-0.8,0.3h-0.1c-0.1,0-0.2,0-0.3,0
		c-0.1,0-0.2,0.1-0.3,0.1c0-0.1-0.2-0.2-0.3-0.2c0,0,0,0,0,0c-0.2,0.1-0.3,0.2-0.3,0.4c-0.4-0.2-0.7,0-0.9,0.5h-0.1v0.1
		c-0.3,1-0.6,2.1-0.9,3.1c-0.3,0.5-0.4,1-0.6,1.5c-0.1,0.3-0.1,0.6-0.2,1c-0.1,0.2-0.1,0.3-0.2,0.5c-0.2,0.1-0.3,0.2-0.3,0.3v0.3
		c0,0.1-0.1,0.1-0.1,0.2c0,0,0,0.1-0.1,0.1c-0.1,0.1-0.2,0.2-0.2,0.3c-0.1,0.1-0.1,0.3-0.2,0.6c-0.2,0.3-0.3,0.5-0.4,0.8
		s-0.3,0.5-0.4,0.8c-0.2,0-0.4,0.2-0.6,0.6c-0.2,0.4-0.3,0.7-0.4,0.9c-0.1,0.1-0.2,0.2-0.3,0.3c0,0.1-0.1,0.2-0.1,0.3
		c-0.3,0.2-0.5,0.4-0.6,0.7c-0.1,0.3-0.2,0.4-0.2,0.5c-0.1,0-0.2,0.1-0.3,0.3v0.1c-0.2,0-0.3,0.1-0.4,0.3c-0.1,0.1-0.2,0.3-0.3,0.4
		c-0.3,0.3-0.7,0.6-1.1,0.7c0-0.1-0.1-0.2-0.2-0.2c-0.1,0-0.2-0.1-0.3-0.1c0.1-0.1,0.1-0.2,0.1-0.3c0-0.1-0.1-0.2-0.2-0.3
		c0-0.2,0-0.4,0.1-0.5c0-0.2,0.1-0.4,0.1-0.6c0.1-0.2,0.2-0.5,0.3-0.8c0-0.2,0.1-0.3,0.1-0.5c0.1-0.1,0.1-0.1,0.1-0.2
		c0.1-0.1,0-0.2,0-0.3c0.2-0.1,0.3-0.3,0.3-0.5c0.2-0.3,0.2-0.7,0.2-1.1c0.1-0.1,0.2-0.2,0.3-0.3c0.1-0.2,0.1-0.4,0-0.6
		c0.1,0,0.1-0.1,0.2-0.2c0-0.1,0-0.2,0-0.3c0.4-1.1,0.9-2.3,1.4-3.7s1.1-2.8,1.7-4.4c-0.3,0.1-0.6,0.4-0.8,1
		c-0.3,0.6-0.6,1.5-1.1,2.6c0.3-1,0.6-1.9,1-2.9c0.3-0.6,0.5-0.9,0.7-0.9c-0.3-0.1-0.6-0.1-0.8,0.1c-0.1-0.1-0.2-0.2-0.3-0.3
		c-0.1-0.1-0.3-0.1-0.4,0c-0.2-0.3-0.6-0.4-1.4-0.4c-0.8,0-1.6,0.3-2.2,0.8c-0.2,0-0.4,0.1-0.6,0.5c-0.2,0.3-0.3,0.7-0.3,1.1
		c-0.2,0.1-0.3,0.2-0.3,0.4c0,0.2,0,0.3,0,0.5c-0.1,0.2-0.3,0.6-0.5,1.3c-0.2,0.6-0.4,1.3-0.5,1.9c-0.2,0.4-0.4,0.8-0.6,1.2
		c-0.2,0.1-0.3,0.3-0.3,0.6c-0.1,0.2-0.2,0.4-0.3,0.6c-0.1,0.1-0.2,0.2-0.3,0.3c-0.1,0.2-0.1,0.3-0.2,0.5c0,0.1-0.1,0.2-0.1,0.3
		c0,0.1-0.1,0.2-0.1,0.3c-0.2,0.1-0.3,0.2-0.4,0.4c-0.1,0.2-0.2,0.4-0.2,0.6c-0.1,0-0.2,0.1-0.3,0.2c-0.1,0.1-0.1,0.3-0.1,0.4
		c-0.2,0.1-0.4,0.2-0.5,0.4C66.1,35,66,35.3,66,35.5c-0.5,0.6-1,1.1-1.5,1.6c-0.2-0.1-0.4,0-0.6,0.1c-0.1,0.1-0.3,0.3-0.5,0.3
		c0.1-0.2-0.1-0.5-0.3-0.5c0,0,0,0,0,0c0.2-0.1,0.2-0.3,0.2-0.7c0-0.4,0-0.7-0.1-1c0.2-0.7,0.4-1.6,0.7-2.7c0.3-1.1,0.7-2.3,1.1-3.6
		c0.1-0.1,0.2-0.3,0.3-0.5c0.1-0.2,0.1-0.4,0.1-0.6c0.1,0.1,0.2,0,0.3-0.1c0.2-0.1,0.2-0.2,0.1-0.3c0.3-0.2,0.6-0.4,0.8-0.6
		c0.2-0.2,0.3-0.4,0.2-0.4c0.2,0,0.4-0.2,0.7-0.6c0.3-0.3,0.4-0.6,0.5-1c1.2-1.6,2.2-3.5,2.7-5.5c0.2-0.2,0.3-0.4,0.3-0.7
		c0.1-0.2,0-0.5,0-0.7c0.1-0.1,0.2-0.3,0.2-0.5c0-0.1,0-0.3-0.1-0.3c0.1-0.1,0.2-0.3,0.2-0.5c0.1-0.2,0-0.4-0.2-0.5
		c0.1-0.3,0.2-0.7,0.3-1c0.1-0.4,0.1-0.9-0.2-1.2c0.1-0.3,0.1-0.6,0.1-0.9c0-0.2-0.1-0.5-0.2-0.6c-0.2-1-0.6-1.9-1.3-2.6
		c0.1-0.2,0-0.3-0.3-0.4c-0.3-0.1-0.6-0.2-0.9-0.3c-0.2-0.1-0.3-0.1-0.5-0.1H68C67.9,9,67.6,9,67.3,9.3c-0.1-0.1-0.3,0-0.5,0.1
		s-0.4,0.3-0.5,0.4L66.2,10c-0.4,0.1-0.6,0.4-0.7,0.7c0,0.3-0.1,0.5-0.2,0.8c-0.2,0-0.3,0.3-0.2,0.8c-0.2,0.1-0.3,0.4-0.3,0.6
		c0,0.2,0,0.4-0.1,0.6c-0.1,0.3-0.2,0.6-0.2,0.9c-0.1,0.3-0.2,0.6-0.2,1c-0.1,0.2-0.1,0.5-0.2,0.7c-0.1,0.2-0.1,0.5-0.2,0.8
		c-0.1,0.1-0.2,0.3-0.3,0.5c-0.1,0.2-0.1,0.4,0,0.6c-0.3,0.2-0.5,0.5-0.5,0.9c-0.1,0.4-0.1,0.8,0,1.2c-0.2,0.7-0.4,1.3-0.5,1.9
		S62.2,23,62,23.7c-0.2,0.2-0.3,0.4-0.4,0.6c-0.1,0.3-0.2,0.6-0.2,0.8c0,0.3-0.1,0.6-0.1,0.8c0,0.3,0,0.4,0,0.6
		c-0.2,0-0.3,0.2-0.3,0.5c0,0.3,0,0.6-0.1,0.9c-0.2,0.1-0.2,0.2-0.2,0.4c0,0.2,0,0.4,0,0.6c-0.1,0-0.3,0.2-0.4,0.7s-0.2,0.7,0,0.9
		c-0.1,0.2-0.1,0.5-0.2,0.7c-0.2,1-0.4,1.9-0.5,2.7c-0.2,0.1-0.2,0.3-0.2,0.6v0.8c0,0.2,0,0.5,0,0.7c-0.1,0.1-0.2,0.2-0.1,0.3
		c0,0.2,0.1,0.3,0.1,0.5c-0.2,0.3-0.2,0.7,0.1,1.3c0.1,0.8,0.4,1.5,1,2.1c0.5,0.5,1.2,0.8,1.9,0.8c0.2,0,0.3,0,0.5,0
		c0.1,0,0.3-0.1,0.4-0.1c0.2,0,0.5-0.1,0.8-0.1s0.4-0.2,0.4-0.4c0.1,0,0.3,0,0.4,0c0.1-0.1,0.3-0.2,0.3-0.3c0.3-0.1,0.5-0.3,0.7-0.5
		c0.3-0.2,0.4-0.5,0.5-0.8c0.3-0.2,0.5-0.4,0.7-0.6c0.1-0.2,0.2-0.4,0.2-0.6c0.2-0.2,0.3-0.5,0.5-0.7c0.1-0.2,0.3-0.5,0.5-0.7
		c0,0.4,0,0.9,0.1,1.3c0,0,0,0,0,0.1h-0.1c0,0,0,0.1,0,0.1c0,0,0,0,0,0c0,0,0,0,0,0c0,0.1,0,0.2,0,0.3c0,0.1,0.1,0.2,0.2,0.3
		c-0.1,0.2,0,0.4,0.2,0.7c0,0.2,0.1,0.4,0.2,0.5c0.1,0.1,0.2,0.3,0.3,0.3c0.1,0.1,0.1,0.1,0.1,0.2c0,0.1,0.1,0.1,0.1,0.1
		c0.1,0.2,0.2,0.3,0.3,0.2c0.2,0.4,0.4,0.6,0.7,0.6c0.3,0,0.5-0.1,0.5-0.1c0.1,0,0.2,0.1,0.3,0.1c0.1,0,0.2,0.1,0.3,0.1
		c0.5,0.1,1,0,1.4-0.2c0.2,0,0.5-0.1,0.7-0.2c0.3-0.1,0.5-0.3,0.6-0.6c0,0,0.1,0,0.1,0s0,0,0.1,0c0.1,0,0.2,0,0.3-0.1
		c0.1-0.1,0.1-0.2,0.1-0.3c0.2-0.1,0.5-0.3,0.7-0.5c0.2-0.2,0.4-0.4,0.5-0.7c0.1,0.1,0.2,0.1,0.2-0.1c0.1-0.1,0.1-0.2,0.1-0.3
		c0.3-0.2,0.5-0.3,0.7-0.6c0.3-0.2,0.4-0.6,0.4-0.9c0.3-0.4,0.6-0.9,0.9-1.3c0,0.2,0,0.4,0,0.6c0,0.3,0.1,0.6,0.3,0.8
		c0,0.4,0.1,0.8,0.1,1.2c0.1,0.5,0.2,0.7,0.4,0.8c0,0.3,0.1,0.6,0.3,0.6c0.4,0.5,0.8,0.9,1.4,1.2c0.6,0.3,1.2,0.4,1.8,0.5
		c0.5,0.2,1,0.2,1.4,0h0.1c0.3,0.1,0.7,0.1,1.1,0.1c0.4,0,0.8-0.2,1-0.6c0,0,0.1,0,0.1,0c0,0,0.1,0,0.1,0c0.2,0,0.4,0,0.6-0.1
		c0.3-0.1,0.4-0.3,0.3-0.5c0.4-0.3,0.8-0.7,1.2-1c0.4-0.4,0.7-0.8,1-1.3c0.3-0.1,0.6-0.3,0.6-0.7c0-0.2,0.1-0.4,0.2-0.6
		c0.2-0.1,0.3-0.2,0.3-0.3v-0.3c0.2-0.1,0.4-0.3,0.5-0.6c0.1-0.2,0.2-0.5,0.1-0.7c0.1-0.2,0.1-0.3,0.2-0.4c0.1-0.1,0.1-0.3,0.2-0.5
		c0.2,0.2,0.5,0.3,0.8,0.3c0.4,0,0.6,0,0.7-0.1c0,0.1,0.2,0.1,0.3,0.1c0.2,0,0.4-0.1,0.5-0.2l0.1-0.1c0.3,0.1,0.7,0,0.9-0.2
		c0.2-0.1,0.3-0.1,0.4-0.2c0,0.3,0,0.5,0,0.8c0,0.8,0.1,1.6,0.4,2.3c-0.2-0.7-0.2-1.5-0.2-2.2c0-0.3,0.1-0.7,0.1-1c0,0,0,0,0,0
		c-0.1,0.5-0.1,1,0,1.4c0,0.5,0.1,1,0.2,1.5c0,0,0,0.1,0,0.1s0,0.1,0,0.1c0,0.1,0,0.1,0.1,0.2l-0.1,0.2c-0.1,0.2,0,0.4,0.1,0.6
		c0.1,0.2,0.3,0.4,0.5,0.5c0.1,0.1,0.1,0.2,0.2,0.3c0,0.2,0.1,0.3,0.2,0.3c0,0.2,0,0.4,0.1,0.5c0.1,0.1,0.3,0.2,0.5,0.3
		c0.8,0.8,1.7,1.4,2.7,1.7c1.1,0.4,2.2,0.5,3.3,0.4c0.3,0.1,0.6,0.1,0.8,0.1c0.3,0,0.5-0.1,0.7-0.3h0.1c0.1,0,0.2,0,0.3,0
		c0.1,0,0.2-0.1,0.2-0.2c0.3,0,0.5-0.1,0.8-0.1c0.3-0.1,0.6-0.2,0.9-0.4c0.3-0.2,0.6-0.3,0.8-0.5c0.2-0.2,0.4-0.4,0.6-0.6
		c0.4-0.1,0.7-0.3,1-0.6c0.3-0.2,0.5-0.6,0.6-1c0.2-0.1,0.5-0.3,0.6-0.6c0.3-0.3,0.4-0.5,0.3-0.7c0.3-0.1,0.4-0.3,0.3-0.5h0.1
		c0.2,0,0.3-0.1,0.2-0.3c0.1-0.2,0.2-0.4,0.3-0.6c0.2-0.1,0.3-0.3,0.4-0.5c0.1-0.2,0.2-0.4,0.2-0.6c0.1-0.1,0.2-0.2,0.3-0.3
		c0.1-0.1,0.2-0.3,0.1-0.4c0.2-0.2,0.3-0.4,0.4-0.6c0.1-0.2,0.2-0.4,0.1-0.7c0.4-0.9,0.8-1.7,1.1-2.4c0.5,0.2,1,0.2,1.6,0.2
		c0.1,0.2,0.3,0.3,0.5,0.2c0.2,0,0.4-0.2,0.5-0.3c0.1,0,0.3,0,0.4-0.1c-0.1,0.3-0.2,0.6-0.3,0.8c-0.1,0.3-0.2,0.6-0.1,0.9
		c-0.1,0.1-0.2,0.3-0.2,0.4v0.4c-0.1,0.2-0.2,0.6-0.3,1.1c-0.2,0.4-0.2,0.9,0,1.3v0.1c-0.1,0.2-0.2,0.5-0.3,0.8
		c-0.1,0.3,0,0.5,0.1,0.6c0,0.6,0,1.3,0.1,1.9c0.1,0.6,0.2,1.2,0.5,1.7c0.2,0.5,0.5,1,1,1.3c0.5,0.4,1,0.6,1.6,0.7
		c-0.3-0.1-0.5-0.3-0.8-0.5c1.4,0.3,2.9-0.1,3.9-1.1c0.3-0.1,0.6-0.2,0.8-0.5c0.2-0.2,0.4-0.5,0.6-0.8c0.3,0,0.4-0.2,0.4-0.5
		c0,0,0.1-0.1,0.3-0.3c0.2-0.2,0.3-0.3,0.5-0.5c0.2-0.2,0.3-0.4,0.5-0.7c0.2-0.3,0.3-0.5,0.3-0.8c0.1,0.1,0.3-0.1,0.5-0.4
		c0.2-0.3,0.3-0.5,0.3-0.8c0,0,0-0.1,0-0.1c0,0,0,0,0,0c0.2-0.3,0.4-0.7,0.6-1c0.2-0.3,0.4-0.7,0.6-1c0.2-0.2,0.4-0.5,0.6-0.8
		c0.1-0.3,0.1-0.5,0.1-0.6c0.1-0.1,0.2-0.2,0.3-0.3c0.1-0.1,0.2-0.3,0.1-0.5c0.5-1.2,0.9-2,1-2.3C130.2,27.6,130.1,27.2,129.9,27
		L129.9,27z M74.1,29.5c0.1-0.4,0.3-0.9,0.6-1.3C74.6,28.5,74.4,28.9,74.1,29.5c-0.1,0.6-0.2,1-0.3,1.3C73.9,30.3,74,29.9,74.1,29.5
		z M70.9,14.6c0-0.2-0.1-0.3-0.2-0.4c0.2-0.3,0.2-0.5,0.2-0.8c0-0.2,0-0.4-0.1-0.6c0.1,0.2,0.2,0.3,0.2,0.5c0,0.3,0,0.5-0.1,0.8
		c0.4,0.3,0.4,1.1-0.1,2.3c0.1,0.1,0.2,0.2,0.2,0.3c0.1,0.1,0,0.3,0,0.4c0-0.1,0-0.2-0.1-0.3c-0.1-0.1-0.2-0.3-0.3-0.3
		c0.1-0.2,0.2-0.3,0.2-0.5c0.1-0.2,0.1-0.5,0.1-0.7C70.9,15,70.9,14.8,70.9,14.6z M67.1,19.5c0.1-0.6,0.3-1.2,0.5-1.9
		c0.2-0.6,0.3-1.2,0.5-1.8c0.1-0.4,0.2-0.7,0.4-1c0,0.1-0.1,0.4-0.3,1c-0.2,0.5-0.3,1.2-0.5,1.8C67.5,18.3,67.3,19,67.1,19.5
		c-0.1,0.7-0.2,1.1-0.3,1.3C66.8,20.5,66.9,20.1,67.1,19.5L67.1,19.5z M66.7,22.5c0.3-0.9,0.6-1.9,0.9-3c0.3-1.1,0.6-2.1,0.8-3
		c0.2-0.9,0.4-1.5,0.5-1.9c0,0.2-0.1,0.3-0.1,0.5c0,0.1,0.1,0.3,0.2,0.3v0.1c-0.1,0.1-0.1,0.2-0.1,0.3c0,0.1,0,0.2,0.1,0.2
		c0,0.1-0.1,0.2-0.1,0.3c0,0.1,0,0.2,0.1,0.3c-0.1,0.7-0.2,1.4-0.4,2.1c-0.2,0.7-0.4,1.4-0.6,2.1c-0.3,0.1-0.4,0.4-0.4,0.9
		c-0.1,0.1-0.2,0.3-0.3,0.5c-0.1,0.3-0.2,0.6-0.3,0.9c-0.3,0.6-0.6,1-0.9,1.4C66.3,23.8,66.5,23.2,66.7,22.5L66.7,22.5z M65.8,25.2
		L65.8,25.2c0.3-0.4,0.5-0.7,0.7-1c0.4-0.5,0.7-1.1,0.9-1.7c-0.2,0.3-0.3,0.8-0.6,1.3c-0.3,0.6-0.6,1.1-1,1.5L65.8,25.2z M61.5,40.4
		c-0.4-0.2-0.8-0.5-1.1-0.9c-0.2-0.3-0.4-0.6-0.5-1c-0.1-0.2-0.1-0.4-0.1-0.6c0.1,0.5,0.3,0.9,0.6,1.3c0.2,0.3,0.5,0.6,0.9,0.8
		c0.3,0.2,0.7,0.3,1,0.4c0.3,0.1,0.7,0.1,1,0.1C62.7,40.8,62,40.7,61.5,40.4z M68.9,35.8c0-0.2,0-0.5,0-0.8c0,0,0,0,0-0.1s0,0,0,0
		C68.9,35.2,68.9,35.5,68.9,35.8z M69,31.4c0,0.1-0.1,0.1-0.1,0.2c-0.1,0.2-0.2,0.4-0.3,0.6c-0.1,0.1-0.1,0.2-0.1,0.3
		c-0.1,0.1-0.3,0.2-0.4,0.4c-0.2,0.2-0.3,0.4-0.5,0.6c0.1-0.2,0.2-0.5,0.4-0.7c0.1-0.2,0.2-0.3,0.3-0.5c0.1-0.1,0.2-0.2,0.2-0.3
		c0.1-0.2,0.2-0.4,0.3-0.6c0.1-0.2,0.2-0.4,0.3-0.6c0,0,0-0.1,0-0.1c0,0,0,0.1,0,0.1C69,31.1,69,31.2,69,31.4z M69.5,32
		c-0.1,0.2-0.2,0.4-0.3,0.6l0,0c0-0.1,0-0.2,0.1-0.3c0.1-0.2,0.2-0.4,0.3-0.6C69.5,31.8,69.5,31.9,69.5,32z M70.7,27
		c-0.1,0-0.1,0.1-0.2,0.1c0.3-0.9,0.5-1.6,0.8-2.2C71.2,25.5,71,26.2,70.7,27L70.7,27z M74.3,37.9c-0.2,0.3-0.4,0.5-0.7,0.6
		c-0.3,0.2-0.6,0.2-1,0.2c-0.1-0.1-0.2-0.3-0.3-0.3c-0.1-0.1-0.3-0.1-0.5,0c0.2-0.4,0.2-0.7,0-1.1c0.5,0.1,0.6,0.4,0.4,0.9
		c0.2,0,0.3,0.1,0.4,0.1s0.1,0.1,0.1,0.3c0.2,0,0.5-0.1,0.7-0.1c0.3-0.1,0.5-0.3,0.7-0.6c0-0.1,0.1-0.2,0.2-0.4
		c0.1-0.2,0.2-0.3,0.4-0.3C74.6,37.2,74.4,37.5,74.3,37.9L74.3,37.9z M80.5,34.1c0,0.5-0.1,1-0.1,1.5c0,0.4,0,0.8,0.1,1.2
		c-0.1-0.4-0.1-0.7-0.1-1.1C80.4,35.1,80.4,34.6,80.5,34.1c0-0.7,0-1.2,0.1-1.6c0-0.3,0.1-0.5,0.2-0.8c0,0.2-0.1,0.5-0.1,1
		S80.6,33.5,80.5,34.1z M82.3,28.8c-0.3,1.1-0.6,2.3-0.9,3.7c-0.2,1.2-0.4,2.5-0.4,3.7c0,1.2,0.3,1.9,0.9,2.2
		c-0.3,0-0.6-0.3-0.8-0.8c-0.2-0.7-0.3-1.5-0.3-2.2c0.1-1.2,0.2-2.4,0.5-3.6c0.4-1.7,0.9-3.4,1.6-5C82.8,26.9,82.6,27.6,82.3,28.8
		L82.3,28.8z M92.9,30.9c-0.2-0.5-0.3-1.1-0.3-1.6c0.1-0.8,0.2-1.7,0.5-2.5c0.3-1,0.8-2,1.3-3c-0.1,0.2-0.3,0.7-0.6,1.5
		c-0.3,0.8-0.6,1.6-0.8,2.4c-0.2,0.8-0.3,1.6-0.2,2.3c0,0.6,0.4,1.2,1,1.4C93.5,31.5,93.1,31.3,92.9,30.9L92.9,30.9z M103.7,33.5
		c-0.4,0.3-0.7,0.6-1.1,0.9c-0.4,0.3-0.9,0.6-1.6,1.1c-0.1-0.1-0.1-0.1-0.2-0.2c0.6-0.3,1.1-0.6,1.5-0.9c0.4-0.3,0.8-0.5,1.2-0.8
		c0.3-0.2,0.6-0.5,0.9-0.8C104.3,33,104,33.2,103.7,33.5L103.7,33.5z M100.7,34.8L100.7,34.8c0-0.1,0.3-0.3,0.9-0.6
		c0.6-0.3,1.1-0.7,1.6-1.2c-0.3,0.4-0.7,0.8-1.2,1.1C101.5,34.4,101,34.7,100.7,34.8L100.7,34.8z M104.5,26.9c0.3,0,0.7,0.1,0.9,0.3
		c0.3,0.2,0.4,0.6,0.4,0.9c0,0.6-0.2,1.2-0.5,1.7c0.2-0.6,0.3-1.2,0.2-1.9c-0.1-0.3-0.3-0.6-0.6-0.8c-0.3-0.1-0.6-0.1-0.9-0.1
		c-0.3,0.1-0.5,0.1-0.6,0.2C103.8,27,104.2,26.9,104.5,26.9L104.5,26.9z M100.8,31.5c0.2-0.3,0.4-0.7,0.5-1.2v-0.1
		c0.2,0,0.3-0.1,0.2-0.4c0.1-0.2,0.3-0.3,0.4-0.5c0.2-0.2,0.3-0.4,0.3-0.4c0.2-0.1,0.3-0.2,0.3-0.3c0.4-0.4,0.8-0.8,1.3-1
		c0.4-0.2,0.8-0.2,1.2-0.1c0.3,0.2,0.5,0.6,0.4,1c0,0.6-0.2,1.1-0.5,1.7c-0.2,0.1-0.3,0.1-0.3,0.2s0,0.2,0,0.3
		c-0.1-0.1-0.2,0-0.3,0.1c-0.1,0.2-0.2,0.4-0.2,0.6c-0.5,0.7-1.2,1.4-2,1.9c-0.3-0.1-0.6,0-0.7,0.2c-0.1,0.1-0.2,0.3-0.3,0.4
		c-0.1-0.2-0.3-0.1-0.7,0.3C100.5,33.2,100.6,32.3,100.8,31.5z M101.2,40.6c-0.6-0.2-1.2-0.4-1.7-0.7c-0.4-0.2-0.8-0.5-1.1-0.8
		c-0.2-0.1-0.3-0.3-0.5-0.5c0.3,0.3,0.7,0.6,1.1,0.8c0.5,0.3,0.9,0.5,1.4,0.7c0.5,0.2,1.1,0.3,1.6,0.5c0.5,0.1,1,0.2,1.4,0.2
		C102.7,40.8,102,40.8,101.2,40.6L101.2,40.6z M109.9,36.5c-0.2,0.3-0.3,0.4-0.2,0.5c-0.3,0.2-0.6,0.3-0.8,0.6
		c-0.3,0.3-0.5,0.6-0.5,0.8c-0.2,0-0.4,0.1-0.6,0.2c-0.2,0.1-0.5,0.2-0.7,0.4c0.3-0.2,0.5-0.3,0.7-0.5c0.2-0.1,0.3-0.3,0.3-0.5
		c0.2,0.1,0.4-0.1,0.8-0.4c0.3-0.2,0.5-0.5,0.6-0.8l0.5-0.5c0.2-0.2,0.4-0.4,0.5-0.6C110.3,36,110.1,36.3,109.9,36.5L109.9,36.5z
		 M113.2,27.3c-0.2-0.3-0.4-0.7-0.5-1.1c-0.2-1-0.1-2,0.4-2.9c-0.4,1-0.5,2.1-0.2,3.1c0.1,0.3,0.2,0.5,0.4,0.7
		C113.3,27.2,113.3,27.2,113.2,27.3L113.2,27.3z M116.4,28.6c-0.4,0-0.9,0-1.3-0.1l0.1-0.2c0.5,0.1,1,0.1,1.4,0.1
		c0.8-0.1,1.5-0.5,2-1C118.1,28.1,117.3,28.5,116.4,28.6L116.4,28.6z M120,37.3c-0.1-0.8-0.1-1.6,0.1-2.3c0.2-1,0.5-2,0.8-3
		c0.3-1.1,0.7-2.2,1.1-3.2c0.3-0.9,0.7-1.7,1.1-2.6c0.2-0.5,0.5-0.9,0.8-1.4c-0.1,0.2-0.3,0.6-0.6,1.4c-0.3,0.7-0.6,1.6-1,2.5
		c-0.4,1-0.7,2-1.1,3.1c-0.3,1.1-0.6,2.1-0.8,3c-0.2,0.8-0.3,1.6-0.3,2.4c0,0.6,0.2,1,0.6,1.1C120.4,38.2,120.1,37.9,120,37.3
		L120,37.3z M60,16.8c0-0.2,0.1-0.4,0.1-0.6c0-0.2,0-0.4-0.1-0.6c0-0.1-0.1-0.3-0.2-0.4c0.1-0.1,0.2-0.3,0.2-0.7c0-0.4,0-0.8,0-1.2
		c0-0.4-0.1-0.9-0.2-1.3c-0.1-0.4-0.2-0.8-0.4-1.1c-0.2-1.3-0.6-2.5-1.2-3.7c-0.5-1.1-1.1-2.1-1.8-3c0.1-0.3,0-0.5-0.2-0.6l-0.6-0.2
		c0-0.2,0-0.5-0.2-0.7c-0.2-0.2-0.3-0.3-0.6-0.4c-0.2-0.1-0.4-0.2-0.6-0.3C54.3,2,54.1,2,54,1.9c0-0.3-0.3-0.4-0.6-0.4
		c-0.1,0-0.1-0.1-0.1-0.1c0,0-0.1-0.1-0.1-0.1c-0.2-0.4-0.6-0.7-1-0.7c-0.5-0.1-0.9-0.1-1.3-0.2l-0.1-0.1c-1.8-0.4-3.7-0.4-5.5-0.1
		c-0.1,0-0.2,0-0.2,0c-0.1,0-0.2,0-0.2,0c-0.3,0.1-0.7,0.2-1.2,0.3C43,0.7,42.5,0.9,42.1,1c-0.4,0.1-0.7,0.3-1.1,0.4
		c-0.3,0.2-0.4,0.3-0.4,0.5c-0.2,0.1-0.4,0.2-0.7,0.2c-0.3,0-0.4,0.1-0.3,0.4c-0.2,0.1-0.5,0.2-0.7,0.2c-0.4,0.1-0.7,0.4-0.8,0.8
		c-0.3,0.1-0.5,0.3-0.8,0.4c-0.3,0.2-0.6,0.5-1,0.8c-0.3,0.3-0.7,0.6-1,0.9c-0.3,0.3-0.5,0.5-0.6,0.9l-0.1,0.1
		c-0.3,0.3-0.6,0.6-0.9,0.8c-0.2,0.1-0.4,0.4-0.3,0.7c-0.2,0.2-0.3,0.4-0.5,0.6c-0.1,0.1-0.4,0.4-0.7,0.8s-0.8,0.9-1.2,1.4
		c-0.4,0.5-0.7,1-1,1.5c-0.3,0.5-0.4,0.8-0.3,0.9c-0.4,0.4-0.7,0.9-1,1.4c-0.2,0.3-0.4,0.7-0.3,1.1c-0.3,0.7-0.7,1.3-1,2.1
		s-0.6,1.5-1,2.2v0.2l0,0.1c0,0,0,0,0,0.1v0.1l0.1-0.1c0,0.1-0.1,0.2-0.1,0.2c0,0,0,0.1-0.1,0.1l0.2-0.2l-0.2,0.3
		c0.1,0,0.1,0,0.2-0.1c0,0,0.1,0,0.1-0.1v0.3c0,0,0,0.1,0,0.1s0,0,0,0.1v0.1h0.1c0,0,0.1,0,0.1-0.1c0.2-0.3,0.5-0.9,0.8-1.5
		c0.3-0.6,0.6-1.1,0.9-1.7c-0.1,0.2-0.2,0.5-0.3,0.8s-0.3,0.7-0.5,1c-0.2,0.3-0.3,0.7-0.4,1c-0.1,0.2-0.2,0.5-0.3,0.7v0.2
		c0,0,0,0.1,0,0.1s0,0,0,0.1L27,21.8l0.1,0.1v0.1c0,0,0-0.1,0.1-0.2c0,0,0.1-0.1,0.1-0.1c0,0.1-0.1,0.1-0.1,0.2c0,0.1,0,0.1-0.1,0.1
		l0.4-0.1c-0.1,0.1-0.1,0.2-0.2,0.2c-0.1,0-0.2,0.1-0.2,0.1c0.1,0,0.2,0,0.3,0c0.1,0,0.1,0,0.2,0l-0.2,0.1c0,0.1,0,0.2,0.1,0.2
		c0.1,0.1,0.1,0.1,0.2,0.2l0.1-0.1c0,0,0.1-0.1,0.1-0.1c0,0,0,0.1,0,0.1s0,0.1,0,0.1v0.1c0,0.1,0.1,0.1,0.2,0.1c0.1,0,0.1,0,0.2,0
		l0.2-0.2c0,0-0.1,0.1-0.1,0.2c0,0,0,0.1-0.1,0.1c0.2,0,0.3-0.1,0.3-0.3c0.3-0.7,0.6-1.5,1-2.5c0.3-0.9,0.8-1.7,1.3-2.5
		c-0.2,0.5-0.4,1-0.6,1.5c-0.2,0.6-0.4,1.1-0.6,1.6c-0.2,0.5-0.3,0.9-0.5,1.3c-0.1,0.3-0.2,0.6-0.3,0.9c0,0,0,0.1,0,0.1
		c0,0,0,0.1,0,0.1v0.2c0.1-0.1,0.1-0.2,0.2-0.3c0,0,0,0.1,0,0.3c0,0.1,0,0.2,0,0.3c0,0,0-0.1,0-0.1c0,0,0,0,0,0c0,0,0.1,0,0.1-0.1
		c0-0.1,0.1-0.1,0.1-0.2c0,0.1,0,0.1-0.1,0.2c0,0.1,0,0.1,0,0.2c0,0,0.1-0.1,0.1-0.1s0.1,0,0.1-0.1c0,0-0.1,0.1-0.1,0.1s0,0-0.1,0.1
		c0,0-0.1,0.1-0.1,0.1c0,0,0.1,0,0.1,0c0,0,0.1,0,0.1,0c0,0,0.1,0.1,0.2,0.1c0-0.1,0.1-0.1,0.1-0.2c0.1,0,0.1-0.1,0.1-0.1v0.2
		c0,0,0,0.1-0.1,0.1c0.1,0,0.1,0.1,0.2,0.1c0.1,0,0.1,0,0.2,0c0.1,0,0.1,0,0.1-0.1c0-0.1,0-0.1,0.1-0.1v0.4c0,0,0.1-0.1,0.1-0.2
		c0-0.1,0.1-0.2,0.1-0.3c0,0.1,0,0.1,0,0.2c0,0.1,0,0.1,0,0.2v0.2c0.1-0.2,0.2-0.4,0.2-0.6c0.6-2,1.3-4,2.2-6
		c0.6-1.3,1.4-2.6,2.4-3.7c-0.7,0.9-1.3,2-1.9,3c-0.5,1-1,2-1.3,3.1c-0.3,1-0.6,1.8-0.8,2.5c-0.1,0.4-0.2,0.8-0.3,1.2
		c0.1-0.3,0.2-0.7,0.4-1.1s0.3-0.8,0.4-1.1c-0.2,0.5-0.3,1.1-0.4,1.6c-0.1,0.5-0.2,1.1-0.3,1.6C31.1,25,31,25.3,31,25.8
		c0,0.4,0,0.8-0.1,1.2c-0.2,0.2-0.3,0.5-0.3,0.8c0,0.3,0,0.5,0.2,0.7c-0.3,0.6-0.4,1.4-0.3,2.1c0.1,0.4,0.1,0.8,0.1,1.2
		c-0.2,0.2-0.3,0.5-0.2,0.8c0,0.3,0.1,0.6,0.3,0.9c-0.2,0.8-0.2,1.7,0,2.5c0.1,0.5,0.3,0.9,0.5,1.3c0.1,0.3,0.2,0.6,0.3,0.9
		c0.1,0.3,0.2,0.6,0.3,0.9v0.8c0,0.2,0.2,0.3,0.5,0.4c0.1,0.1,0.1,0.3,0.1,0.4c0,0.2,0,0.2,0.2,0.2c0,0.4,0.1,0.8,0.3,1.2
		c0.2,0.5,0.5,0.8,0.9,0.8c-0.1,0.3,0.1,0.6,0.4,0.7c0,0,0.1,0,0.1,0h0.1c0.1,0.2,0.1,0.4,0.2,0.6c0.1,0.2,0.2,0.4,0.4,0.6
		c0.2,0.2,0.4,0.4,0.7,0.5c0.3,0.1,0.6,0.2,0.9,0.1c0.1,0.4,0.3,0.6,0.7,0.8c0.4,0.2,0.9,0.3,1.4,0.4c0.5,0.1,1,0.1,1.5,0.1
		c0.4,0,0.8-0.1,1.1-0.3c0.4,0.3,1,0.3,1.4-0.1c0-0.1,0.1-0.1,0.1-0.2c0.3,0,0.5,0,0.8-0.1c0.4-0.1,0.8-0.2,1.2-0.4
		c0.4-0.2,0.8-0.4,1.2-0.6c0.3-0.2,0.6-0.4,0.8-0.8c0.4,0,0.7-0.2,1-0.4c0.6-0.5,1-1,1.4-1.6c0.3,0,0.6-0.1,0.8-0.4
		c0.3-0.3,0.4-0.6,0.5-1c0.3-0.1,0.5-0.3,0.7-0.5c0.4-0.3,0.7-0.7,1-1.1c0.4-0.5,0.8-1,1.1-1.6c0.3-0.6,0.6-1.3,0.8-2
		c0.9-1.7,1.8-3.4,2.5-5.2c0.8-2,1.5-4.1,2.1-6.2c0.7-2.3,1.1-4.6,1.2-7C59.9,17,59.9,16.9,60,16.8L60,16.8z M31.2,13.2
		c-0.2,0.4-0.4,0.8-0.7,1.2c-0.3,0.5-0.5,0.9-0.7,1.3c-0.2,0.3-0.3,0.6-0.5,0.8c0.4-0.9,0.8-1.7,1.3-2.6c0.3-0.5,0.7-1.1,1.1-1.6
		C31.6,12.6,31.4,12.8,31.2,13.2L31.2,13.2z M50.3,32.2c-0.2,0.4-0.4,0.8-0.6,1.2c-0.2,0.4-0.4,0.8-0.6,1.2
		c-0.4,0.3-0.6,0.7-0.8,1.2c-0.3,0.6-0.5,0.9-0.6,1.1c-0.3,0-0.5,0.1-0.5,0.4c0,0.3-0.1,0.5-0.3,0.7c-0.2,0-0.3,0-0.4,0.1
		c-0.1,0.1-0.3,0.3-0.4,0.5c-0.1,0.2-0.2,0.4-0.3,0.6l-0.2,0.4c-0.1-0.1-0.4,0-0.8,0.2c-0.4,0.3-0.8,0.5-1.2,0.9
		c-0.4,0.3-0.8,0.7-1.1,1c-0.2,0.2-0.4,0.3-0.6,0.5c-0.2-0.1-0.4-0.1-0.6,0c-0.3,0.1-0.4,0.2-0.6,0.2c-0.1-0.3-0.2-0.4-0.5-0.4
		c-0.2,0-0.4,0.1-0.6,0.1c0-0.2-0.2-0.4-0.5-0.5c-0.4-0.1-0.7-0.4-1-0.7c-0.6-1-1.1-2.1-1.2-3.3c-0.3-1.8-0.3-3.7-0.2-5.5
		c0,0.4,0.1,0.8,0.2,1.1c0.1,0.3,0.2,0.6,0.2,0.8c0-1.2,0.1-2.5,0.2-3.8c0.1-1.4,0.3-2.7,0.5-4.1c0.2-1.4,0.5-2.7,0.7-4
		c0.3-1.3,0.6-2.6,0.9-3.7c0.2-0.6,0.4-1.2,0.7-1.8c0.2-0.4,0.4-0.8,0.5-1c0.2-0.4,0.3-0.7,0.1-0.9c-0.1-0.1-0.3-0.2-0.5-0.1
		c-0.1,0-0.3,0.1-0.3,0.2c-0.3-0.2-0.7-0.4-1-0.4c-0.4-0.1-0.9,0.1-1,0.6c-0.1,0.3-0.3,0.8-0.6,1.6c-0.3,0.9-0.6,1.9-0.9,2.8
		c-0.3,1.1-0.6,2.4-0.8,3.7c-0.3,1.4-0.4,2.8-0.6,4.2c0-2,0.2-3.9,0.6-5.9c0.4-2.2,1-4.4,1.7-6.5c-0.3-0.1-0.5-0.1-0.6,0
		c-0.1,0.1-0.2,0.3-0.3,0.5c-0.3-0.1-0.5-0.1-0.8,0c-0.4,0.1-0.7,0.3-1,0.5c0.3-0.5,0.6-1,0.9-1.4c0.3-0.4,0.6-0.9,0.9-1.3
		c0.3,0,0.6-0.3,0.9-0.8c0.2-0.5,0.5-0.9,0.9-1.3c0.6-0.2,0.9-0.5,0.9-0.9c0.3-0.2,0.6-0.5,0.9-0.7c0.4-0.3,0.7-0.6,0.7-0.8
		c0.6-0.3,1.2-0.7,1.8-1c0.5-0.3,0.9-0.6,1.2-1c0.2,0,0.3,0,0.5,0c0.1,0,0.2-0.1,0.3-0.4c0.5,0.1,0.9,0,1.4-0.2
		c0.6-0.2,1-0.4,1.3-0.5c1.2-0.1,2.5,0.1,3.5,0.7c0.2,0.1,0.4,0.3,0.6,0.5c0.2,0.2,0.4,0.4,0.6,0.4C52,7.8,52.2,8,52.5,8
		c0.1,0.4,0.2,0.7,0.4,1.1c0.2,0.5,0.5,0.9,0.9,1.2c0,0.1,0,0.1-0.1,0.1c-0.1,0.1-0.1,0.2-0.1,0.3c0,0.2,0.1,0.5,0.1,0.7
		c0.2,0.4,0.4,0.8,0.6,1.1c-0.1,0.2-0.2,0.4-0.1,0.6c0,0.3,0.1,0.5,0.3,0.6c0.1,1.3,0.1,2.7,0,4c-0.2,1.6-0.4,3.2-0.8,4.8
		c-0.6,1.4-1,2.4-1.2,2.9c-0.2,0.4-0.2,0.9,0,1.3c-0.2,0.1-0.4,0.2-0.5,0.4c-0.1,0.2-0.1,0.4,0.1,0.7c-0.1,0.1-0.2,0.3-0.4,0.6
		c-0.2,0.3-0.4,0.6-0.5,1c-0.1,0.3-0.3,0.6-0.3,1c-0.1,0.3-0.1,0.5,0.1,0.6c-0.2,0.2-0.4,0.4-0.6,0.6C50,31.8,50.1,32.1,50.3,32.2z
		 M36.8,30.4c0-0.9,0-1.9,0.1-2.9c0.1-1,0.2-2.1,0.3-3c0.1-1,0.3-1.9,0.5-2.7c0.1-0.6,0.3-1.2,0.5-1.7c0,0.1-0.1,0.5-0.2,1.2
		s-0.3,1.5-0.4,2.4c-0.2,1-0.3,2-0.4,3.2S36.8,29.3,36.8,30.4L36.8,30.4z M56.3,29.4c-0.2,0.6-0.5,1.2-0.8,1.9
		c-0.3,0.7-0.6,1.4-1,2.1c-0.3,0.6-0.7,1.1-1.1,1.6c0,0.7-0.2,1.4-0.5,2c-0.6,1.3-1.5,2.4-2.7,3.2c0.4-0.4,0.7-0.9,1.1-1.4
		c0.4-0.5,0.7-1,1-1.6c0.2-0.5,0.5-0.9,0.6-1.4c0.1-0.3,0.2-0.6,0.2-1c0.4-0.4,0.7-0.8,0.9-1.3c0.4-0.7,0.7-1.4,1.1-2.1
		C55.5,30.7,55.9,30,56.3,29.4c0.2-0.7,0.4-1.1,0.5-1.4C56.7,28.3,56.5,28.8,56.3,29.4z M58.9,17.1c-0.1,0.4-0.2,0.8-0.2,1.2
		c0,0.6-0.1,1.1-0.2,1.5c0-0.5,0-1.1,0-1.6c0-0.4-0.1-0.8-0.2-1.2c0.2-0.3,0.3-0.7,0.3-1.1c0-0.3-0.1-0.6-0.2-0.8
		c0-0.2,0.1-0.5,0-0.7c0-0.4,0-0.8-0.1-1.3c0-0.4-0.1-0.8-0.2-1.2c0-0.2-0.1-0.5-0.3-0.7c0-0.3-0.1-0.6-0.1-0.9
		c0-0.4-0.1-0.7-0.2-1.1c0.1,0.3,0.3,0.7,0.4,1c0.1,0.3,0.2,0.5,0.4,0.8c0,0.1,0,0.3,0.1,0.7s0.1,0.8,0.1,1.3s0.1,0.9,0.2,1.3
		s0.2,0.6,0.2,0.6c-0.1,0.3-0.2,0.7-0.2,1C58.7,16.3,58.7,16.7,58.9,17.1L58.9,17.1z M25.6,37.6c-0.3,0-0.5,0.1-0.7,0.2
		c-0.4,0.1-0.8,0.1-1.2,0.2c-0.4,0-0.7,0.1-1.1,0.2c-0.1,0.2-0.1,0.3-0.2,0.3l-0.1,0.2c-0.1,0-0.2,0.1-0.2,0.2
		c0,0.1,0.1,0.2,0.2,0.2c0,0,0,0.1,0,0.1s0,0,0,0.1c-0.1,0.2-0.1,0.4-0.2,0.5s0,0.3,0,0.3c-0.1,0.2-0.2,0.3-0.2,0.6
		c0,0.3,0.2,0.4,0.6,0.3h0.2c0.1,0.1,0.2,0.1,0.3,0.1c0.1,0,0.2,0,0.3-0.1h0.2c0.2,0,0.5-0.1,0.8-0.1c0.3,0,0.5-0.1,0.5-0.2
		c0.1,0,0.2,0,0.3-0.1c0.2-0.1,0.3-0.3,0.3-0.6c0.1-0.2,0.2-0.4,0.2-0.6c0.1-0.2,0.1-0.4,0.2-0.6h0.1v-0.5c0-0.1,0.1-0.2,0.1-0.3
		c0.1-0.1,0.1-0.2,0.2-0.3c0-0.1,0-0.2-0.1-0.2S25.9,37.5,25.6,37.6z"/>
</g>
</svg>
