<?xml version="1.0" encoding="utf-8"?>
<!-- Generator: Adobe Illustrator 22.1.0, SVG Export Plug-In . SVG Version: 6.00 Build 0)  -->
<svg version="1.1" id="Layer_1" xmlns="http://www.w3.org/2000/svg" xmlns:xlink="http://www.w3.org/1999/xlink" x="0px" y="0px"
	 viewBox="0 0 62 62" style="enable-background:new 0 0 62 62;" xml:space="preserve">
<style type="text/css">
	.st0{fill:#C91F3B;}
</style>
<title>decoration-dots-angle</title>
<g id="decoration">
	<path class="st0" d="M58,54c-2.2,0-4,1.8-4,4s1.8,4,4,4s4-1.8,4-4S60.2,54,58,54z M4,0C1.8,0,0,1.8,0,4s1.8,4,4,4s4-1.8,4-4
		S6.2,0,4,0z M22,0c-2.2,0-4,1.8-4,4s1.8,4,4,4s4-1.8,4-4S24.2,0,22,0z M40,0c-2.2,0-4,1.8-4,4s1.8,4,4,4s4-1.8,4-4S42.2,0,40,0z
		 M58,8c2.2,0,4-1.8,4-4s-1.8-4-4-4s-4,1.8-4,4S55.8,8,58,8z M22,18c-2.2,0-4,1.8-4,4s1.8,4,4,4s4-1.8,4-4S24.2,18,22,18z M40,18
		c-2.2,0-4,1.8-4,4s1.8,4,4,4s4-1.8,4-4S42.2,18,40,18z M58,18c-2.2,0-4,1.8-4,4s1.8,4,4,4s4-1.8,4-4S60.2,18,58,18z M40,36
		c-2.2,0-4,1.8-4,4s1.8,4,4,4s4-1.8,4-4S42.2,36,40,36z M58,36c-2.2,0-4,1.8-4,4s1.8,4,4,4s4-1.8,4-4S60.2,36,58,36z"/>
</g>
</svg>
