<svg id="Layer_1" data-name="Layer 1" xmlns="http://www.w3.org/2000/svg" viewBox="0 0 81.69 21.14"><defs><style>.cls-1{fill:#fff;}</style></defs><title>logotype34</title><path class="cls-1" d="M19.45,23.28c-.8.81-2.24,2.4-3.16,2.25C15,25.33,14.5,24,14.5,22.44a11,11,0,0,1,2-5.56,12.92,12.92,0,0,1,8.44-5.47c.3-.05.48,0,.65.37a3.59,3.59,0,0,1,.29,1.41,1.52,1.52,0,0,1-.65,1.19c-2.22,2-2.54,2-2.68,2s-.21-.13-.21-.31.32-.53.43-.64l.67-.75,0,0c-4.79,1.94-7.65,7.33-7.47,8.43.08.46.21.84.56.84a2,2,0,0,0,1.09-.69l5.87-6.13c.1-.13.23-.29.37-.29s.47.27.59.38a.77.77,0,0,1,.4.59,3.2,3.2,0,0,1-.22.78c-.69,1.91-1.7,3.83-2.93,6.5l0,.05L25.2,22c0,1,.08,1.14-2.11,3.17l-2.58,2.41c-.66,1.23-3.08,4.85-4.17,4.85-.4,0-.57-.44-.59-.92C15.7,30,17.13,28,18.7,27a31.75,31.75,0,0,0,2.57-5.46l0,0Z" transform="translate(-14.5 -11.27)"/><path class="cls-1" d="M26.07,25.75c0-.8.7-2.63,1.62-2.36.22.06.78.06.78.7,0,0-.4,2.74-1.39,2.59C26.64,26.61,26.07,26.5,26.07,25.75Z" transform="translate(-14.5 -11.27)"/><path class="cls-1" d="M44.36,14.45a1.26,1.26,0,0,1,1.44.2,2.69,2.69,0,0,1,.5,1.74c.08,4.39-3.74,10.33-7.41,10.29-1.27,0-2.71-1.09-2.86-4.51-.19-4.76,5.15-10.17,8.25-10.76.75-.16,1.55,1.41,1.55,1.76s-.54.66-.78.77a4.47,4.47,0,0,0-.71.49Zm-4.7,5c-.21,0-.21-.42-.23-.62a8.6,8.6,0,0,0-1.78,4.81c0,.77.24,1.43.85,1.43a5,5,0,0,0,3-1.72c2.15-2.51,3.37-5.2,3.41-6.82,0-.52-.2-1.08-.62-1.08-1.41,0-3.35,1.83-4.11,3.4C40.06,19,39.85,19.44,39.66,19.44Z" transform="translate(-14.5 -11.27)"/><path class="cls-1" d="M50.82,23.3c-.88,1.26-2.39,3.49-3.76,3.49-1.18,0-1.43-1.57-1.43-2.87a13.69,13.69,0,0,1,1.76-6.58c1.41-2.4,2.94-4.46,3.45-4.46.27,0,.34.53.32.82-.11,2.1-.53,4-4,8.67A3.39,3.39,0,0,0,47,23.89c.14.51.37.95.8.95.88,0,2.12-1.41,2.76-2.2Zm-3.32-3a14.5,14.5,0,0,0,2.43-4.83c-.79.53-1.7,2.52-2.46,4.79Z" transform="translate(-14.5 -11.27)"/><path class="cls-1" d="M55.06,23.7c-.72,1.21-2.13,3.2-3.35,3.2-1,0-1.38-1.5-1.38-2.63,0-2.69,2-5.32,3-5.32a.63.63,0,0,1,.7.62c0,1.1-1.59,3.07-2.26,3.71-.13.9.11,1.39.85,1.39s1.68-1.17,2.33-1.81Zm-1.54-6.14a1.71,1.71,0,0,1,1.4-1.7c.29,0,.53.29.53.69,0,.88-.6,2-1.29,2C53.78,18.51,53.52,18.09,53.52,17.56Z" transform="translate(-14.5 -11.27)"/><path class="cls-1" d="M60.85,18.33c.32,0,.48.29.48.73A12.71,12.71,0,0,1,60,22.79a.6.6,0,0,0,.55.29c.41,0,1-.55,1.36-.88l.11.92c-.56.89-1.15,1.57-2.05,1.57-.34,0-.56-.31-.83-.57-.45.7-2.07,2.64-2.7,2.64-.94,0-1.59-1.65-1.59-3.33,0-3,2-5.16,2.54-5.16.22,0,1,0,1,.51,0,1-1.51,3.22-2.08,3.88A7.42,7.42,0,0,0,56,24c0,.36.06.86.38.86.47,0,1.73-1.61,2.07-2.05a4.6,4.6,0,0,1,.8-2.6C59.59,19.61,60.29,18.33,60.85,18.33Z" transform="translate(-14.5 -11.27)"/><path class="cls-1" d="M67.77,23.28c-1,1.56-2.74,3.64-4.33,3.64-1.17,0-1.72-1.44-1.75-2.89C61.62,21.14,64,18.18,66,18.2c.51,0,1.15.18,1.15,1.06,0,1.08-.79,2.72-3.86,4.1l0,.49a1,1,0,0,0,1,1.13c1.14,0,2.48-1.62,3.33-2.54Zm-2-3.56c0-.15-.08-.28-.19-.24a4.25,4.25,0,0,0-2.17,2.8A4.57,4.57,0,0,0,65.78,19.72Z" transform="translate(-14.5 -11.27)"/><path class="cls-1" d="M68.67,21.78a15,15,0,0,1-1.92,2.73l-.07-1a7.36,7.36,0,0,0,1.06-1.61c-.34,0-.43-.22-.43-.68a4,4,0,0,1,2-3.18c.16,0,.29.18.29.37a1.8,1.8,0,0,1-.12.62c1.51-.28,2.39-.55,2.55-.28a2.62,2.62,0,0,1,.39,1.16,2,2,0,0,1-.68,1.44,4.79,4.79,0,0,0-1.25,2.51.58.58,0,0,0,.5.62c.69,0,1.7-1.43,2.23-2l.11.81c-.61.95-2.45,3.4-3.37,3.4-.67,0-1.09-.86-1.09-1.7a7.22,7.22,0,0,1,1.48-3.73l0,0Z" transform="translate(-14.5 -11.27)"/><path class="cls-1" d="M80.86,29.68c-.4.64-1.55,2.38-2.18,2.38-.38,0-.62-.57-.62-1,0-1.54,1.17-3.79,4.91-6.82l2.29-5.29a19.33,19.33,0,0,0,1.51-5.69c-2.41,1.12-4.41,4.56-4.88,8A6.9,6.9,0,0,1,83,20.3a.15.15,0,0,1,.15.17,5.61,5.61,0,0,1-.79,1.35c-.4.62-1.14,1.85-1.8,1.85s-.62-1-.62-1.65A15.9,15.9,0,0,1,81,17.1c1.68-4.37,4.84-5.83,6-5.83.6,0,1.16.93,1.16,1.42,0,1.41-.44,3.64-3.32,10.32l0,0,1.86-1.13.21.71-2.84,1.85Z" transform="translate(-14.5 -11.27)"/><path class="cls-1" d="M88.44,21.78a14.58,14.58,0,0,1-1.93,2.73l-.06-1a7.36,7.36,0,0,0,1.06-1.61c-.34,0-.44-.22-.44-.68a4.07,4.07,0,0,1,2-3.18.34.34,0,0,1,.29.37,2.07,2.07,0,0,1-.11.62c1.51-.28,2.39-.55,2.55-.28a2.75,2.75,0,0,1,.39,1.16,2,2,0,0,1-.68,1.44,4.79,4.79,0,0,0-1.25,2.51.58.58,0,0,0,.5.62c.69,0,1.7-1.43,2.23-2l.11.81c-.61.95-2.45,3.4-3.37,3.4-.67,0-1.09-.86-1.09-1.7a7.22,7.22,0,0,1,1.48-3.73l0,0Z" transform="translate(-14.5 -11.27)"/><path class="cls-1" d="M93.78,25.75c0-.8.71-2.63,1.62-2.36.23.06.79.06.79.7,0,0-.4,2.74-1.4,2.59C94.36,26.61,93.78,26.5,93.78,25.75Z" transform="translate(-14.5 -11.27)"/></svg>