<?xml version="1.0" encoding="utf-8"?>
<!-- Generator: Adobe Illustrator 22.1.0, SVG Export Plug-In . SVG Version: 6.00 Build 0)  -->
<svg version="1.1" id="Layer_1" xmlns="http://www.w3.org/2000/svg" xmlns:xlink="http://www.w3.org/1999/xlink" x="0px" y="0px"
	 viewBox="0 0 114 42.7" style="enable-background:new 0 0 114 42.7;" xml:space="preserve">
<style type="text/css">
	.st0{fill:#FFFFFF;}
</style>
<title>logotype5</title>
<g>
	<path class="st0" d="M11,24.6c-1,0.8-2.9,2.3-4.1,2.1c-1.7-0.2-2.4-1.5-2.4-2.9c0-1.8,1.4-4,2.6-5.3c1.4-1.6,5.2-4.6,11-5.2
		c0.4,0,0.6,0,0.9,0.4s0.4,0.9,0.4,1.3c0,0.5-0.4,0.9-0.9,1.1c-2.9,1.9-3.3,1.9-3.5,1.9c-0.2,0-0.3-0.1-0.3-0.3
		c0-0.2,0.4-0.5,0.6-0.6l0.9-0.7l0,0c-6.3,1.8-10,7-9.8,8c0.1,0.4,0.3,0.8,0.7,0.8c0.4,0,1.1-0.4,1.4-0.7l7.7-5.8
		c0.1-0.1,0.3-0.3,0.5-0.3s0.6,0.3,0.8,0.4c0.2,0.1,0.5,0.3,0.5,0.6c0,0.2-0.2,0.6-0.3,0.7c-0.9,1.8-2.2,3.7-3.8,6.2l0,0l4.6-3
		c0,0.9,0.1,1.1-2.8,3l-3.4,2.3c-0.9,1.2-4,4.6-5.5,4.6c-0.5,0-0.8-0.4-0.8-0.9C6.1,31,7.9,29.2,10,28.2c1.3-1.6,2.5-3.3,3.4-5.2
		l0,0L11,24.6z"/>
	<path class="st0" d="M19.6,27c0-0.8,0.9-2.5,2.1-2.2c0.3,0.1,1,0.1,1,0.7c0,0-0.5,2.6-1.8,2.5C20.4,27.8,19.6,27.7,19.6,27z"/>
	<path class="st0" d="M36.4,16.2c0.8-0.2,1.5-0.1,1.9,0.2c0.4,0.3,0.6,0.9,0.7,1.7c0.1,4.2-4.9,9.8-9.7,9.8c-1.7,0-3.5-1-3.7-4.3
		c-0.3-4.5,6.7-9.7,10.8-10.2c1-0.1,2,1.3,2,1.7c0,0.4-0.7,0.6-1,0.7C37,15.9,36.7,16,36.4,16.2L36.4,16.2z M30.3,21
		C30,21,30,20.6,30,20.4c-1.2,1.2-2.3,2.9-2.3,4.6c0,0.7,0.3,1.4,1.1,1.4c1.2,0,3-0.9,3.9-1.6c2.8-2.4,4.4-5,4.5-6.5
		c0-0.5-0.3-1-0.8-1c-1.8,0-4.4,1.7-5.4,3.2C30.8,20.6,30.5,21,30.3,21z"/>
	<path class="st0" d="M44.9,24.7c-1.2,1.2-3.1,3.3-4.9,3.3c-1.5,0-1.9-1.5-1.9-2.7c0-2.2,0.9-4.6,2.3-6.3c1.8-2.3,3.8-4.2,4.5-4.2
		c0.4,0,0.4,0.5,0.4,0.8c-0.1,2-0.7,3.8-5.2,8.3c-0.2,0.4-0.3,0.9-0.1,1.4c0.2,0.5,0.5,0.9,1,0.9c1.2,0,2.8-1.3,3.6-2.1L44.9,24.7z
		 M40.5,21.8c1.5-1.4,2.8-3.4,3.2-4.6C42.7,17.7,41.5,19.6,40.5,21.8L40.5,21.8z"/>
	<path class="st0" d="M50.4,25c-0.9,1.2-2.8,3-4.4,3c-1.2,0-1.8-1.4-1.8-2.5c0-2.6,2.6-5.1,3.9-5.1c0.4,0,0.9,0.1,0.9,0.6
		c0,1-2.1,2.9-3,3.5c-0.2,0.9,0.1,1.3,1.1,1.3c1.1,0,2.2-1.1,3-1.7L50.4,25z M48.4,19.2c0-0.9,1-1.6,1.8-1.6c0.4,0,0.7,0.3,0.7,0.7
		c0,0.8-0.8,1.9-1.7,1.9C48.7,20.1,48.4,19.7,48.4,19.2z"/>
	<path class="st0" d="M58,19.9c0.4,0,0.6,0.3,0.6,0.7c0,0.8-1.2,2.8-1.7,3.5c0.2,0.2,0.4,0.3,0.7,0.3c0.5,0,1.3-0.5,1.8-0.8l0.1,0.9
		C58.8,25.3,58,26,56.9,26c-0.4,0-0.7-0.3-1.1-0.5c-0.6,0.7-2.7,2.5-3.5,2.5c-1.2,0-2.1-1.6-2.1-3.2c0-2.9,2.6-4.9,3.3-4.9
		c0.3,0,1.3,0,1.3,0.5c0,0.9-2,3.1-2.7,3.7c-0.1,0.3-0.3,0.9-0.3,1.2s0.1,0.8,0.5,0.8c0.6,0,2.3-1.5,2.7-2c-0.1-1,0.5-1.8,1-2.5
		C56.3,21.1,57.3,19.9,58,19.9z"/>
	<path class="st0" d="M67.1,24.6c-1.3,1.5-3.6,3.5-5.7,3.5c-1.5,0-2.2-1.4-2.3-2.8c-0.1-2.8,3-5.6,5.7-5.5c0.7,0,1.5,0.2,1.5,1
		c0,1-1,2.6-5.1,3.9l0,0.5c-0.1,0.8,0.6,1.1,1.3,1.1c1.5,0,3.3-1.5,4.4-2.4L67.1,24.6z M64.5,21.3c0-0.1-0.1-0.3-0.3-0.2
		c-1.1,0.3-2.3,1.3-2.8,2.7C63.2,23.1,64.5,21.6,64.5,21.3z"/>
	<path class="st0" d="M68.2,23.2c-0.7,1.2-1.6,1.7-2.5,2.6l-0.1-0.9c0.5-0.4,1-1,1.4-1.5c-0.4,0-0.6-0.2-0.6-0.7c0-1.5,2.1-3,2.6-3
		c0.2,0,0.4,0.2,0.4,0.4c0,0.2-0.1,0.4-0.1,0.6c2-0.3,3.1-0.5,3.3-0.3c0.3,0.4,0.5,0.7,0.5,1.1c0,0.7-0.4,1-0.9,1.4
		c-0.6,0.5-1.6,1.6-1.6,2.4c0,0.3,0.3,0.6,0.7,0.6c0.9,0,2.2-1.4,2.9-1.9l0.1,0.8c-0.8,0.9-3.2,3.2-4.4,3.2c-0.9,0-1.4-0.8-1.4-1.6
		c0-1.4,1.1-2.5,1.9-3.5l0,0L68.2,23.2z"/>
	<path class="st0" d="M84.2,30.7c-0.5,0.6-2,2.3-2.9,2.3c-0.5,0-0.8-0.5-0.8-1c0-1.5,1.5-3.6,6.4-6.5l3-5c1-1.7,1.7-3.5,2-5.4
		c-3.1,1.1-5.8,4.3-6.4,7.6c1.2-0.7,1.4-0.8,1.4-0.8c0.1,0,0.2,0.1,0.2,0.2c0,0.3-0.8,1.1-1,1.3c-0.5,0.6-1.5,1.8-2.4,1.8
		C83,25,83,24,83,23.4c0-1.4,0.8-3.4,1.5-4.7c2.2-4.2,6.3-5.5,7.8-5.5c0.8,0,1.5,0.9,1.5,1.3c0,1.3-0.6,3.5-4.3,9.8l0,0l2.4-1.1
		l0.3,0.7l-3.7,1.8L84.2,30.7z"/>
	<path class="st0" d="M94.1,23.2c-0.7,1.2-1.6,1.7-2.5,2.6l-0.1-0.9c0.5-0.4,1-1,1.4-1.5c-0.4,0-0.6-0.2-0.6-0.7c0-1.5,2.1-3,2.6-3
		c0.2,0,0.4,0.2,0.4,0.4c0,0.2-0.1,0.4-0.1,0.6c2-0.3,3.1-0.5,3.3-0.3c0.3,0.4,0.5,0.7,0.5,1.1c0,0.7-0.4,1-0.9,1.4
		c-0.6,0.5-1.6,1.6-1.6,2.4c0,0.3,0.3,0.6,0.7,0.6c0.9,0,2.2-1.4,2.9-1.9l0.1,0.8c-0.8,0.9-3.2,3.2-4.4,3.2c-0.9,0-1.4-0.8-1.4-1.6
		c0-1.4,1.1-2.5,1.9-3.5l0,0L94.1,23.2z"/>
	<path class="st0" d="M101.1,27c0-0.8,0.9-2.5,2.1-2.2c0.3,0.1,1,0.1,1,0.7c0,0-0.5,2.6-1.8,2.5C101.9,27.8,101.1,27.7,101.1,27z"/>
</g>
</svg>
