<?xml version="1.0" encoding="utf-8"?>
<!-- Generator: Adobe Illustrator 22.1.0, SVG Export Plug-In . SVG Version: 6.00 Build 0)  -->
<svg version="1.1" id="Layer_1" xmlns="http://www.w3.org/2000/svg" xmlns:xlink="http://www.w3.org/1999/xlink" x="0px" y="0px"
	 viewBox="0 0 114 42.7" style="enable-background:new 0 0 114 42.7;" xml:space="preserve">
<style type="text/css">
	.st0{fill:#FFFFFF;}
	.st1{fill:none;}
</style>
<title>logotype5</title>
<path class="st0" d="M21.6,40c0.2,1.2-0.6,2.3-1.8,2.4c-0.2,0-0.4,0-0.6,0c-1.4,0.1-2.5-1-2.6-2.3l0,0c0-1.4,1.2-2.5,2.6-2.6
	C20.6,37.5,21.6,38.6,21.6,40z"/>
<path class="st0" d="M61.1,15.9c-0.1,6.6-2.4,12.9-6.7,17.9c-4.8,5.9-10.3,8.9-16.5,8.9c-4.1,0.2-8-1.6-10.5-4.8
	c-2.4-3.3-3.6-7.3-3.5-11.3c0-6.5,2.3-12.9,6.4-17.9C35,2.9,40.5,0,47,0c4.1-0.2,8,1.6,10.6,4.7C60,7.9,61.3,11.9,61.1,15.9
	L61.1,15.9z M56.5,14.1c0.1-2.8-0.6-5.6-2-8c-1.6-2.3-4.3-3.6-7.1-3.5c-5.5,0-10.2,3.1-14,9.2c-3.3,5-5.1,10.8-5.2,16.8
	c-0.1,2.8,0.8,5.6,2.4,7.9c1.7,2.3,4.4,3.6,7.3,3.5c3.8,0,7.4-2,11-6.1c2.9-3.3,5.1-7.2,6.4-11.4C56,19.9,56.5,17,56.5,14.1
	L56.5,14.1z"/>
<path class="st0" d="M111.8,28.5c-1.2,0-2.6,1.2-4.1,3.7l0.8-4.1l-4.1,1.2l-2.7,13.1h3.4c1.5-3.3,3.2-6.6,5.1-9.7
	c-0.1,0.9-0.2,2.2-0.5,4.1l3.9-2.8c0-1,0.1-1.9,0.3-2.9C114,29.9,113.1,28.7,111.8,28.5L111.8,28.5z"/>
<path class="st0" d="M98.7,36.2c-1.5,1.3-3.2,2.4-5.1,3.1c0.1,0.4,0.5,0.6,0.9,0.5c1.2,0,3.3-1.6,6.3-4.8l0.5,3
	c-3.3,3.1-5.9,4.6-7.8,4.6c-2.6,0-3.9-1.3-3.9-4c0-2.1,1-4.3,3-6.8s4-3.7,6-3.7c1.6,0,2.9,1.2,3,2.9c0,0.1,0,0.2,0,0.3
	C101.5,32.9,100.6,34.6,98.7,36.2z"/>
<path class="st0" d="M98.3,31.2l-0.2-0.6c-0.8,0.1-1.6,0.8-2.6,2.3c-0.7,1-1.2,2.2-1.5,3.4C96.9,34.6,98.3,32.9,98.3,31.2z"/>
<path class="st0" d="M87.4,28.7c-0.8,2-1.6,4.1-2.6,6.2c-1.6,3.3-2.8,5-3.7,5H81l-0.2-0.5c0.2-2,0.6-4,1.2-6l1.6-5.6L79.3,29
	l-0.9,2.7c-0.7,2.3-1,4.6-1,7c0,2.7,1,4,3.1,4c3,0,6.6-4.7,10.8-14.2L87.4,28.7z"/>
<path class="st0" d="M66.2,35.3l0.8,2.8c-2.9,3-5,4.5-6.4,4.5c-1.8,0-2.7-0.9-2.7-2.6c0.1-1.6,0.4-3.2,0.8-4.7L58,36.1l-0.8-2.7
	L60,30c1.3-5.6,3-11.1,5-16.4C68.2,5.2,71,1,73.6,1c1.3,0,2,1.2,2,3.5c0,5.6-3.8,13.6-11.3,24.1c-0.5,1.7-1,3.5-1.5,5.2
	c-0.5,1.8-0.9,3.6-1.1,5.5h0.1C63.5,38.1,64.9,36.8,66.2,35.3z"/>
<path class="st0" d="M66.4,20.9c2.4-4,3.8-6.4,4.2-7.2c1.4-2.9,2.2-6,2.4-9.2C71.9,4.5,69.7,10,66.4,20.9L66.4,20.9z"/>
<path class="st0" d="M74.5,20.9c-1.1-0.1-2.1,0.6-2.3,1.7c0,0.2,0,0.4,0,0.6c0,1.5,0.7,2.1,2,2.1c1.1,0.2,2.1-0.6,2.3-1.7
	c0-0.2,0-0.4,0-0.6c0.2-1-0.5-2-1.5-2.1C74.8,20.9,74.7,20.9,74.5,20.9L74.5,20.9z"/>
<path class="st0" d="M71.6,38.9c0.8-3.8,2-7.5,3.4-11.1l-4.7,1l-1.6,6.6c-0.7,2.8-1,4.3-1,4.4c0,1.9,0.8,2.8,2.2,2.8
	c1.6,0,3.8-1.7,6.7-5.3l-1.3-2C73.7,36.9,72.4,38.2,71.6,38.9z"/>
<g>
	<path class="st1" d="M11.7,25c-0.4,0.1-0.6,0.3-0.9,0.6c-0.2,0.3-0.3,0.7-0.3,1c0,0.2,0,0.3,0,0.5s0.1,0.3,0.1,0.5
		c0.3-0.2,0.7-0.3,1.1-0.5s0.9-0.3,1.3-0.4s0.9-0.2,1.4-0.3c0.5-0.1,0.9-0.1,1.3-0.1c1,0,1.7,0.1,2.3,0.4c0.5,0.3,0.8,0.7,0.8,1.3
		c0,0.4-0.1,0.8-0.4,1.1c-0.3,0.3-0.6,0.5-1,0.7s-0.8,0.3-1.3,0.3c-0.4,0.1-0.8,0.1-1.2,0.1c-0.9,0-1.6-0.1-2.3-0.4
		s-1.3-0.7-1.8-1.4c-0.4,0.3-0.8,0.7-1.2,1.1s-0.7,0.9-1.1,1.4c-0.3,0.5-0.6,1-0.8,1.5S7.6,33.5,7.6,34c0,0.3,0,0.6,0.1,0.8
		c0.1,0.3,0.2,0.5,0.3,0.7s0.3,0.3,0.5,0.5c0.2,0.1,0.5,0.2,0.8,0.2s0.6-0.1,0.9-0.2s0.6-0.3,0.9-0.5c0.3-0.2,0.6-0.4,0.8-0.6
		s0.4-0.5,0.5-0.7c0.1-0.3,0.3-0.5,0.4-0.8c0.1-0.2,0.3-0.5,0.4-0.6c0.2-0.2,0.4-0.3,0.6-0.4c0.2-0.1,0.5-0.2,0.9-0.2
		s0.6,0.1,0.6,0.2c0,0.2-0.1,0.4-0.2,0.6c-0.1,0.2-0.3,0.4-0.4,0.7c-0.2,0.2-0.3,0.4-0.4,0.6c-0.1,0.2-0.2,0.4-0.3,0.5
		c-0.1,0.3-0.3,0.7-0.5,1S13,36.6,12.7,37s-0.7,0.8-1.1,1.2s-0.9,0.7-1.4,1s-1.1,0.6-1.7,0.7c-0.6,0.2-1.3,0.3-2,0.3
		c-0.4,0-0.8,0-1.2-0.1c-0.4-0.1-0.8-0.2-1.1-0.4s-0.6-0.4-0.8-0.8s-0.3-0.7-0.3-1.1c0-0.4,0.1-0.8,0.3-1.1s0.5-0.5,0.9-0.5
		c0.2,0,0.5,0.1,0.7,0.2s0.3,0.4,0.3,0.7c0,0.4-0.2,0.7-0.7,0.8c0,0.1,0,0.2,0,0.3s0,0.2,0,0.3c0,0.3,0.1,0.6,0.2,0.8
		s0.3,0.3,0.5,0.4C5.2,39.9,5.4,40,5.7,40c0.3,0,0.5,0,0.8,0c0.7,0,1.3-0.2,1.9-0.5c0.6-0.3,1.1-0.8,1.5-1.3s0.9-1.1,1.2-1.7
		c0.4-0.6,0.7-1.1,1-1.6l0,0c-0.3,0.2-0.5,0.4-0.8,0.6c-0.3,0.2-0.6,0.4-0.9,0.5c-0.3,0.2-0.7,0.3-1,0.4c-0.3,0.1-0.7,0.1-1.1,0.1
		c-0.8,0-1.5-0.3-1.9-0.8s-0.7-1.2-0.7-2c0-0.7,0.1-1.4,0.4-2s0.7-1.2,1.1-1.7c0.5-0.5,1-1,1.5-1.4c0.6-0.4,1.1-0.8,1.7-1.1
		c0-0.1-0.1-0.3-0.1-0.4s0-0.3,0-0.5c0-0.5,0.1-0.9,0.4-1.2c0.3-0.3,0.6-0.6,1.1-0.7L11.7,25L11.7,25z M17.7,27.7
		c0-0.4-0.1-0.7-0.4-0.9s-0.8-0.3-1.5-0.3c-0.4,0-0.7,0.1-1.2,0.2s-0.9,0.2-1.3,0.4s-0.8,0.4-1.2,0.6s-0.7,0.4-1,0.7
		c0.4,0.5,0.9,0.9,1.5,1.2c0.5,0.3,1.1,0.4,1.9,0.4c0.5,0,0.9-0.1,1.3-0.2c0.4-0.1,0.8-0.3,1.1-0.5c0.3-0.2,0.5-0.4,0.7-0.7
		C17.6,28.3,17.7,28,17.7,27.7z"/>
</g>
</svg>
